#!OML:ASF I:\Random Stuff\random\construction\7_22_03\Session 2\subj1.ASF
:FULLY-SPECIFIED
:DEGREES
521
root 4.14077 17.7488 -9.39541 17.234 -24.3725 -2.65437
lowerback 10.0991 1.03822 5.40227
upperback 5.69118 1.74502 -2.2663
thorax 0.528695 1.01273 -5.57182
lowerneck -19.9324 2.23835 -1.60966
upperneck 39.2113 6.87811 -7.04009
head 18.4098 1.37941 -1.60455
rclavicle -9.34288e-015 7.55382e-015
rhumerus 28.2997 44.208 -26.4014
rradius 72.7399
rwrist 5.32109
rhand -12.2424 34.6466
rfingers 7.12502
rthumb 13.8234 5.12594
lclavicle -9.34288e-015 7.55382e-015
lhumerus 8.48478 -71.9186 81.9911
lradius 75.6992
lwrist -15.7645
lhand -21.8443 39.4897
lfingers 7.12502
lthumb 4.55912 429.421
rfemur -24.9563 1.62513 18.7542
rtibia 14.5153
rfoot -3.32962 -9.03711
rtoes -11.5255
lfemur -22.4703 -17.904 -4.15281
ltibia 18.5654
lfoot -12.653 22.5324
ltoes -32.5622
522
root 4.13244 17.7468 -9.40405 17.275 -24.2229 -2.70075
lowerback 10.2091 1.16033 5.56728
upperback 5.81211 1.92265 -2.16347
thorax 0.623536 1.1094 -5.57412
lowerneck -19.992 2.0773 -1.77415
upperneck 39.1806 6.7175 -7.06604
head 18.396 1.29129 -1.61849
rclavicle 3.598e-014 -2.70347e-014
rhumerus 28.4197 44.159 -25.4969
rradius 73.0915
rwrist 5.17506
rhand -12.5289 34.5486
rfingers 7.12502
rthumb 13.5473 5.0093
lclavicle 3.598e-014 -2.70347e-014
lhumerus 9.23456 -72.1163 81.5813
lradius 75.7838
lwrist -15.7354
lhand -21.3937 39.7641
lfingers 7.12502
lthumb 4.99423 429.685
rfemur -25.1208 1.29472 18.9489
rtibia 14.7542
rfoot -3.45755 -8.87649
rtoes -10.9612
lfemur -22.5781 -17.7669 -4.04095
ltibia 18.5936
lfoot -12.6608 22.2735
ltoes -32.5005
523
root 4.12423 17.7473 -9.4121 17.3212 -24.0951 -2.67547
lowerback 10.3666 1.25393 5.70737
upperback 5.84731 2.06511 -2.10015
thorax 0.598442 1.18278 -5.60421
lowerneck -19.9367 1.95144 -1.98087
upperneck 39.1406 6.59338 -7.03286
head 18.342 1.22201 -1.58931
rclavicle -5.1684e-015 3.20043e-014
rhumerus 28.3298 44.0768 -24.8903
rradius 73.4631
rwrist 5.00564
rhand -12.4611 34.4683
rfingers 7.12502
rthumb 13.6126 4.93341
lclavicle -5.1684e-015 3.20043e-014
lhumerus 9.69835 -72.3208 81.3849
lradius 75.832
lwrist -15.6104
lhand -21.0118 39.7533
lfingers 7.12502
lthumb 5.36299 429.665
rfemur -25.2752 1.17355 18.992
rtibia 14.9196
rfoot -3.52128 -8.8577
rtoes -10.4926
lfemur -22.6701 -17.6867 -3.98341
ltibia 18.5238
lfoot -12.747 22.065
ltoes -31.8483
524
root 4.11655 17.7488 -9.41614 17.3217 -23.9607 -2.51167
lowerback 10.4099 1.325 5.63579
upperback 5.91147 2.15388 -1.99626
thorax 0.646387 1.22645 -5.46172
lowerneck -19.8341 1.86391 -2.17224
upperneck 39.0698 6.58174 -7.1597
head 18.2774 1.17863 -1.61405
rclavicle -4.17448e-014 1.11319e-014
rhumerus 28.3999 44.0183 -24.1306
rradius 73.8306
rwrist 4.61921
rhand -12.3331 34.3486
rfingers 7.12502
rthumb 13.736 4.82198
lclavicle -4.17448e-014 1.11319e-014
lhumerus 10.1711 -72.46 81.2404
lradius 75.8878
lwrist -15.2895
lhand -21.0397 39.6999
lfingers 7.12502
lthumb 5.33601 429.613
rfemur -25.4499 1.08989 18.8645
rtibia 15.153
rfoot -3.6186 -8.96511
rtoes -10.2013
lfemur -22.7741 -17.7215 -4.06307
ltibia 18.443
lfoot -12.6671 21.9541
ltoes -31.782
525
root 4.10631 17.7484 -9.41655 17.2964 -23.823 -2.34819
lowerback 10.393 1.36256 5.64811
upperback 6.01736 2.20089 -1.97331
thorax 0.773096 1.25647 -5.44576
lowerneck -19.7755 1.82351 -2.1824
upperneck 39.0187 6.60613 -7.36553
head 18.25 1.16347 -1.70176
rclavicle 1.98785e-014 2.127e-014
rhumerus 28.6535 44.0358 -23.2683
rradius 74.2657
rwrist 4.31106
rhand -12.4986 34.149
rfingers 7.12502
rthumb 13.5764 4.61163
lclavicle 1.98785e-014 2.127e-014
lhumerus 10.9496 -72.5998 80.655
lradius 75.9361
lwrist -14.9807
lhand -21.2023 39.7509
lfingers 7.12502
lthumb 5.17897 429.668
rfemur -25.5724 0.924665 18.7673
rtibia 15.3981
rfoot -3.74432 -9.02583
rtoes -10.0823
lfemur -22.8204 -17.7625 -4.16466
ltibia 18.3392
lfoot -12.4601 21.8707
ltoes -32.3274
